<svg xmlns="http://www.w3.org/2000/svg" viewBox="0 0 218.86 218.85"><defs><style>.cls-1{fill:#00e0b7;}.cls-2{fill:#5cd5c4;}.cls-3{fill:#37a596;}.cls-3,.cls-5{fill-rule:evenodd;}.cls-4,.cls-5{fill:#d6fff7;}.cls-6{fill:#fff;}</style></defs><title>Asset 1</title><g id="Layer_2" data-name="Layer 2"><g id="Layer_1-2" data-name="Layer 1"><path class="cls-1" d="M11.3,15.18a45.17,45.17,0,0,0-5.64,8,43.68,43.68,0,0,1,5-7.31c.2-.23.39-.46.59-.68Z"/><path class="cls-2" d="M.29,54.28h0a3.49,3.49,0,0,0,0,.56,4.8,4.8,0,0,0,1.57,3,13.57,13.57,0,0,0,4.85,3,55.31,55.31,0,0,0,13.81,3,168.18,168.18,0,0,0,19,.87c1.62,0,3.24-.16,4.86-.16.81,0,1.18-.27,1.28-.9a7.05,7.05,0,0,1,0-.83c.05-2.85,0-5.69.1-8.55,0,2.6,0,5.2,0,7.8,0,2.13-.18,1.95,2,2,22.32.09,44.65,0,67,.14,19.11.15,38.24,0,57.36,0a4.09,4.09,0,0,0,1-.06l.1,0,.08,0a.17.17,0,0,0,.06-.06.25.25,0,0,0,.08-.12.73.73,0,0,0,.07-.29,7.05,7.05,0,0,0,0-.83c-.06-3.13,0-6.26-.11-9.39,0-1.73-.07-3.46-.1-5.19,0-1.13,0-2.25,0-3.38l0-2.85c0-.52,0-1,0-1.55l0-2.59c0-.87,0-1.74,0-2.6s0-1.73,0-2.59c1.77,2.8,4.42,4.28,7.27,5.49,5,2.13,10.32,3.25,15.58,4.53,5.65,1.37,11.36,2.56,16.68,5a12.43,12.43,0,0,1,5.13,3.86,5.55,5.55,0,0,1,1.12,2.62v.59q0,62.22,0,124.45a45.58,45.58,0,0,1-40.64,39.59q-68.67,0-137.35,0A45.56,45.56,0,0,1,0,177H0"/><path class="cls-3" d="M207.82,15.13c-2.08.47-4.18.86-6.27,1.26A144.6,144.6,0,0,0,184,20.45a25.66,25.66,0,0,0-7.41,3.49A7.7,7.7,0,0,0,173,30.6l0,2.1h0c0,.86,0,1.73,0,2.59s0,1.73,0,2.6l0,2.59c0,.52,0,1,0,1.55l0,2.85c0,1.13,0,2.25,0,3.38,0,1.73.06,3.46.1,5.19.07,3.13,0,6.26.11,9.39a7.05,7.05,0,0,1,0,.83.73.73,0,0,1-.07.29.25.25,0,0,1-.08.12.17.17,0,0,1-.06.06l-.08,0-.1,0a4.09,4.09,0,0,1-1,.06c-19.12,0-38.25.1-57.36,0-22.32-.18-44.65,0-67-.14-2.13,0-2,.17-2-2,0-2.6,0-5.2,0-7.8,0-7.11,0-14.21.1-21.32v-.25c.12-5.81-1.33-8.22-7.53-11a46.3,46.3,0,0,0-5.67-2.06l-.83-.23c-.73-.21-1.47-.4-2.21-.58-.37-.1-.75-.18-1.12-.27-2.6-.6-5.24-1.09-7.86-1.61-1.57-.32-3.15-.61-4.73-.91-.79-.15-1.57-.3-2.36-.47s-1.52-.31-2.28-.48l-.06,0A45.42,45.42,0,0,1,40.28,0H178.69A45.39,45.39,0,0,1,207.82,15.13Z"/><path class="cls-2" d="M218.85,39.43V54.22a5.55,5.55,0,0,0-1.12-2.62,12.43,12.43,0,0,0-5.13-3.86c-5.32-2.46-11-3.65-16.68-5-5.26-1.28-10.56-2.4-15.58-4.53-2.85-1.21-5.5-2.69-7.27-5.49h0l0-2.1a7.7,7.7,0,0,1,3.54-6.66A25.66,25.66,0,0,1,184,20.45a144.6,144.6,0,0,1,17.56-4.06c2.09-.4,4.19-.79,6.27-1.26A45.41,45.41,0,0,1,218.85,39.43Z"/><path class="cls-2" d="M45.89,32.75V33c-1.76,2.63-4.33,4-7.09,5.22-5,2.12-10.32,3.25-15.58,4.53-5.65,1.37-11.36,2.56-16.68,5a12.46,12.46,0,0,0-5.13,3.87A5.56,5.56,0,0,0,.29,54.24V41.47A46.26,46.26,0,0,1,5.63,23.2l0-.05a45.17,45.17,0,0,1,5.64-8c.76.17,1.52.34,2.28.48s1.57.32,2.36.47c1.58.3,3.16.59,4.73.91,2.62.52,5.26,1,7.86,1.61.37.09.75.17,1.12.27.74.18,1.48.37,2.21.58l.83.23a46.3,46.3,0,0,1,5.67,2.06C44.56,24.53,46,26.94,45.89,32.75Z"/><path class="cls-4" d="M45.69,62.87a7.05,7.05,0,0,0,0,.83c-.1.63-.47.9-1.28.9-1.62,0-3.24.16-4.86.16a168.18,168.18,0,0,1-19-.87,55.31,55.31,0,0,1-13.81-3,13.57,13.57,0,0,1-4.85-3,4.8,4.8,0,0,1-1.57-3,3.49,3.49,0,0,1,0-.56v0a5.56,5.56,0,0,1,1.12-2.61,12.46,12.46,0,0,1,5.13-3.87c5.32-2.45,11-3.64,16.68-5,5.26-1.28,10.57-2.41,15.58-4.53,2.76-1.17,5.33-2.59,7.09-5.22-.14,7.11-.11,14.21-.1,21.32C45.73,57.18,45.74,60,45.69,62.87Z"/><path class="cls-5" d="M218.85,54.81a4.78,4.78,0,0,1-1.57,3,13.57,13.57,0,0,1-4.85,3,55.31,55.31,0,0,1-13.81,3,168,168,0,0,1-19,.87c-1.62,0-3.24-.16-4.86-.16-.82,0-1.19-.27-1.29-.9a7.05,7.05,0,0,0,0-.83c-.06-3.13,0-6.26-.11-9.39,0-1.73-.07-3.46-.1-5.19,0-1.13,0-2.25,0-3.38l0-2.85c0-.52,0-1,0-1.55l0-2.59c0-.87,0-1.74,0-2.6s0-1.73,0-2.59c1.77,2.8,4.42,4.28,7.27,5.49,5,2.13,10.32,3.25,15.58,4.53,5.65,1.37,11.36,2.56,16.68,5a12.43,12.43,0,0,1,5.13,3.86,5.55,5.55,0,0,1,1.12,2.62v0A3.49,3.49,0,0,1,218.85,54.81Z"/><path class="cls-6" d="M160.52,143.14a54.63,54.63,0,0,1-17.59,13.44,77.06,77.06,0,0,1-30.33,7.59c-.65,0-1.29.07-1.93.12l-1.14.08h-.13a69.58,69.58,0,0,1-28.86-6.66,71.83,71.83,0,0,1-19.23-13l-.18-.18a6.75,6.75,0,0,1-2.44-4.08A6.17,6.17,0,0,1,62,134a6.78,6.78,0,0,1,7.86,1.29,54.4,54.4,0,0,0,23.87,15,47.23,47.23,0,0,0,18.41,2.13,75.35,75.35,0,0,0,17-3.05,49.79,49.79,0,0,0,19-11.36l.61-.56a38.83,38.83,0,0,1,3.06-2.68,6.22,6.22,0,0,1,4.64-1.29,6.48,6.48,0,0,1,4.3,2.56A5.36,5.36,0,0,1,160.52,143.14Z"/><path class="cls-6" d="M78.84,111.66a3.43,3.43,0,0,1-3.86,0l-1.83-1c-1.09-.57-2.18-1.14-3.26-1.72-4.14-2.21-8.38-2.22-13,0-2.83,1.37-5.12,2.53-7.21,3.68-.37.21-.75.4-1.13.59a4.2,4.2,0,0,1-1.87.49,3.26,3.26,0,0,1-2-.7,3.38,3.38,0,0,1-1-3.82,20.73,20.73,0,0,1,3.83-7.52c3.94-5,9-7.73,14.67-8h.09a18.17,18.17,0,0,1,16.88,11.36,23.4,23.4,0,0,1,.89,2.56A3.35,3.35,0,0,1,78.84,111.66Z"/><path class="cls-6" d="M173.79,111.66a3.38,3.38,0,0,1-3.94.23c-1.78-1-3.57-1.92-5.35-2.86A13.35,13.35,0,0,0,152,109c-2.45,1.14-4.89,2.43-7.26,3.68l-1.19.63a4.56,4.56,0,0,1-2.1.61,3.09,3.09,0,0,1-2.06-.79,3.39,3.39,0,0,1-.88-4c2.77-8.29,8.23-13.32,16.23-15a12.79,12.79,0,0,1,1.93-.2l.68,0h.19a18.17,18.17,0,0,1,17.35,14.2A3.36,3.36,0,0,1,173.79,111.66Z"/></g></g></svg>